<?xml version="1.0" standalone="no"?>
<!DOCTYPE svg PUBLIC "-//W3C//DTD SVG 20010904//EN"
 "http://www.w3.org/TR/2001/REC-SVG-20010904/DTD/svg10.dtd">
<svg version="1.0" xmlns="http://www.w3.org/2000/svg"
 width="16.000000pt" height="16.000000pt" viewBox="0 0 16.000000 16.000000"
 preserveAspectRatio="xMidYMid meet">
<metadata>
Created by potrace 1.11, written by Peter Selinger 2001-2013
</metadata>
<g transform="translate(0.000000,16.000000) scale(0.001563,-0.001563)"
fill="#000000" stroke="none">
<path d="M6588 8505 c-2 -1 -21 -5 -43 -8 -196 -28 -399 -201 -456 -390 -21
-68 -23 -85 -23 -187 0 -127 5 -155 50 -247 87 -181 268 -301 466 -307 65 -2
95 1 176 19 92 21 228 116 296 206 61 81 71 100 100 201 19 67 24 104 22 174
-1 50 -5 95 -9 100 -3 6 -8 24 -11 40 -3 16 -22 62 -42 103 -84 171 -260 282
-465 295 -32 2 -59 3 -61 1z"/>
<path d="M8852 8064 c-149 -30 -264 -95 -366 -205 -136 -147 -197 -349 -162
-539 31 -168 150 -320 314 -401 l65 -32 -34 -25 c-53 -41 -149 -142 -149 -158
0 -3 -9 -19 -20 -34 -18 -26 -45 -89 -55 -130 -2 -8 -8 -30 -14 -48 -10 -34
-9 -197 2 -240 14 -56 19 -70 44 -124 15 -32 30 -58 35 -58 4 0 8 -7 8 -15 0
-27 134 -148 207 -187 156 -84 347 -98 518 -39 49 17 91 35 93 41 2 5 9 10 16
10 19 0 116 75 164 128 126 136 184 342 145 517 -19 90 -19 91 -55 158 -48 92
-156 195 -256 244 l-82 41 52 40 c184 142 277 388 231 612 -29 137 -133 290
-248 362 -52 32 -166 78 -213 85 -74 11 -179 9 -240 -3z"/>
<path d="M2308 7824 c-2 -1 -43 -5 -93 -8 -49 -3 -101 -8 -115 -11 -14 -3 -41
-8 -60 -11 -19 -3 -43 -7 -52 -10 -9 -3 -25 -7 -35 -9 -89 -21 -118 -29 -183
-52 -41 -14 -79 -29 -85 -33 -5 -4 -30 -15 -55 -24 -25 -10 -88 -42 -140 -71
-228 -129 -429 -312 -576 -525 -130 -188 -237 -447 -278 -675 -27 -146 -27
-507 -1 -577 3 -7 7 -26 9 -43 13 -99 79 -301 139 -423 81 -164 146 -264 262
-401 78 -92 242 -236 360 -317 105 -73 395 -217 395 -197 0 3 6 1 13 -4 22
-18 175 -62 272 -78 11 -2 34 -6 50 -9 131 -26 466 -26 579 -1 12 3 32 7 46 9
14 3 36 8 50 11 14 3 37 7 52 10 93 17 427 152 436 177 2 4 9 8 16 8 16 0 164
98 236 157 196 160 368 378 464 588 15 33 31 68 37 77 15 29 68 188 62 188 -3
0 -1 6 4 13 6 6 14 30 18 52 5 22 9 45 11 50 1 6 5 28 9 50 3 22 8 46 10 53 8
22 19 174 19 257 0 98 -11 215 -28 312 -68 376 -276 743 -566 1000 -92 81
-235 184 -315 227 -27 15 -57 31 -65 36 -51 32 -257 114 -319 126 -13 3 -31 9
-40 13 -14 7 -109 27 -216 46 -65 11 -320 26 -327 19z"/>
<path d="M8138 5815 c-2 -2 -21 -5 -43 -9 -63 -9 -92 -15 -122 -27 -16 -6 -30
-10 -33 -10 -12 2 -104 -33 -161 -60 -59 -29 -162 -94 -190 -121 -8 -7 -39
-13 -69 -14 -56 0 -124 -8 -170 -19 -14 -3 -36 -8 -49 -11 -13 -3 -61 -22
-105 -44 -221 -105 -360 -277 -423 -524 -3 -12 -7 -73 -9 -136 -3 -89 1 -131
15 -185 37 -142 86 -233 175 -332 44 -49 52 -73 22 -73 -22 0 -150 -97 -221
-167 -102 -101 -196 -254 -240 -388 -12 -36 -16 -53 -31 -120 -25 -106 -24
-297 1 -405 3 -14 8 -36 11 -49 3 -13 9 -32 15 -43 5 -10 8 -18 5 -18 -7 0 47
-127 80 -188 64 -117 197 -267 309 -347 187 -133 385 -198 605 -199 163 -1
220 8 348 50 232 78 425 236 551 452 40 69 74 142 65 142 -2 0 2 13 10 29 8
15 17 40 20 55 3 14 7 34 10 44 14 44 18 86 21 197 4 121 0 164 -29 291 -2 12
-16 54 -30 95 -14 40 -24 74 -23 75 1 1 16 5 32 8 67 12 89 18 168 47 109 39
216 100 311 178 77 63 169 164 189 208 5 13 14 23 18 23 4 0 31 46 59 103 29
56 50 102 49 102 -1 0 5 25 15 55 31 103 44 196 40 317 -1 65 -5 129 -8 143
-4 14 -8 37 -11 51 -10 54 -59 187 -95 255 -94 180 -245 335 -422 432 -68 38
-164 80 -198 87 -8 2 -27 8 -42 14 -16 6 -28 8 -28 6 0 -2 -12 0 -26 5 -14 6
-42 13 -62 16 -38 6 -299 14 -304 9z"/>
<path d="M4847 5604 c-1 -1 -24 -5 -52 -8 -198 -27 -392 -143 -525 -315 -69
-91 -118 -201 -145 -326 -13 -60 -14 -269 -1 -312 3 -13 8 -31 10 -40 38 -160
154 -337 288 -438 58 -44 170 -110 187 -110 3 0 11 -3 16 -7 9 -5 78 -26 115
-35 110 -24 291 -22 363 6 15 6 27 8 27 6 0 -8 112 37 170 68 149 81 263 202
340 361 59 121 79 224 76 377 -2 71 -8 135 -15 147 -6 12 -9 22 -5 22 3 0 2 6
-4 13 -6 6 -10 14 -9 17 4 11 -28 97 -48 130 -11 19 -27 48 -35 63 -25 50
-120 157 -181 205 -87 67 -216 134 -282 146 -15 2 -30 7 -34 9 -19 12 -246 30
-256 21z"/>
<path d="M9577 2688 c-127 -28 -217 -143 -213 -273 2 -85 23 -139 75 -197 54
-61 99 -90 167 -110 67 -20 178 -14 208 11 7 6 15 8 18 6 9 -9 108 85 124 118
22 41 27 72 27 143 -1 118 -85 237 -203 284 -58 24 -144 32 -203 18z"/>
<path d="M7908 1345 c-2 -2 -39 -5 -83 -9 -44 -3 -90 -8 -101 -10 -12 -2 -37
-7 -55 -10 -19 -3 -44 -8 -56 -11 -13 -3 -33 -7 -44 -10 -85 -18 -235 -70
-256 -87 -7 -6 -13 -8 -13 -4 0 8 -169 -80 -231 -120 -335 -216 -593 -552
-718 -934 -17 -52 -35 -107 -40 -122 l-9 -28 1795 0 1794 0 -6 21 c-8 23 -76
158 -114 224 -171 297 -450 590 -741 777 -75 49 -241 142 -247 140 -2 -1 -27
10 -57 23 -53 23 -225 84 -256 90 -8 2 -42 10 -75 18 -33 9 -76 18 -95 21 -19
3 -46 8 -60 11 -50 10 -324 26 -332 20z"/>
</g>
</svg>
